<svg xmlns="http://www.w3.org/2000/svg" width="2600" height="900" viewBox="0 0 2600 900" fill="none">
  <title>NILPRO wordmark with underline swoosh</title>
  <path d="M 398.48 199.06 L 354.04 455.00 L 304.65 455.00 L 260.16 285.35 L 230.62 455.00 L 180.00 455.00 L 224.32 199.06 L 273.88 199.06 L 318.54 368.88 L 348.08 199.06 L 398.48 199.06 Z M 490.95 199.06 L 446.51 455.00 L 396.06 455.00 L 440.49 199.06 L 490.95 199.06 Z M 634.06 412.08 L 626.46 455.00 L 488.14 455.00 L 532.47 199.06 L 583.09 199.06 L 546.14 412.08 L 634.06 412.08 Z" fill="#FFFFFF"/>
  <path d="M 759.22 365.17 L 722.32 365.00 L 706.68 455.00 L 656.06 455.00 L 700.38 199.06 L 782.62 199.23 Q 818.11 200.30 836.11 224.32 Q 854.17 248.28 851.36 282.37 Q 848.04 320.51 822.50 342.95 Q 797.02 365.34 759.22 365.17 Z M 743.58 242.15 L 729.69 321.91 L 761.86 322.31 Q 779.30 321.91 788.75 310.49 Q 798.26 299.07 800.39 282.71 Q 801.97 270.61 798.76 257.00 Q 795.61 243.33 780.31 242.49 L 743.58 242.15 Z M 968.43 455.00 L 947.33 361.46 L 921.68 361.46 L 905.48 455.00 L 854.86 455.00 L 899.18 199.06 L 976.53 199.23 Q 1010.95 200.13 1029.12 220.32 Q 1047.35 240.52 1044.53 275.00 Q 1040.15 327.37 996.72 347.96 L 1022.54 452.19 L 1022.54 455.00 L 968.43 455.00 Z M 942.38 242.15 L 929.05 318.42 L 955.43 318.76 Q 972.65 318.59 982.10 307.01 Q 991.60 295.36 993.74 279.22 Q 995.31 266.90 992.33 255.03 Q 989.35 243.16 974.39 242.32 L 942.38 242.15 Z M 1248.07 307.34 L 1242.45 345.31 Q 1232.10 414.39 1190.98 443.58 Q 1168.99 459.22 1136.47 458.54 Q 1105.87 457.81 1088.55 442.01 Q 1071.28 426.14 1065.26 401.45 Q 1059.30 376.76 1062.62 349.87 L 1068.64 310.49 Q 1079.16 241.25 1119.94 211.21 Q 1142.27 194.68 1175.12 195.52 Q 1206.28 196.25 1223.32 212.96 Q 1240.37 229.66 1245.99 255.09 Q 1251.62 280.46 1248.07 307.34 Z M 1199.59 279.05 Q 1199.92 263.41 1194.13 251.38 Q 1188.34 239.34 1171.29 238.61 Q 1152.62 237.71 1142.04 248.79 Q 1131.52 259.87 1126.52 276.07 Q 1121.51 292.21 1119.43 307.01 L 1113.24 350.04 Q 1111.84 362.02 1111.84 377.15 Q 1111.67 392.23 1117.74 403.59 Q 1123.82 414.89 1140.52 415.62 Q 1158.64 416.52 1168.99 406.06 Q 1179.34 395.60 1184.46 380.07 Q 1189.57 364.49 1191.49 350.21 L 1198.35 300.99 L 1199.59 279.05 Z" fill="#00E866"/>
  <polygon points="710,565 2050,555 1980,585 1120,640 900,600" fill="#00E866"/>
</svg>