<svg xmlns="http://www.w3.org/2000/svg" width="2600" height="900" viewBox="0 0 2600 900" fill="none">
  <title>NILPRO wordmark with underline swoosh</title>
  <path d="M 398.48 -685.94 L 354.04 -430.00 L 304.65 -430.00 L 260.16 -599.65 L 230.62 -430.00 L 180.00 -430.00 L 224.32 -685.94 L 273.88 -685.94 L 318.54 -516.12 L 348.08 -685.94 L 398.48 -685.94 Z M 490.95 -685.94 L 446.51 -430.00 L 396.06 -430.00 L 440.49 -685.94 L 490.95 -685.94 Z M 634.06 -472.92 L 626.46 -430.00 L 488.14 -430.00 L 532.47 -685.94 L 583.09 -685.94 L 546.14 -472.92 L 634.06 -472.92 Z" fill="#FFFFFF"/>
  <path d="M 757.81 -519.83 L 720.91 -520.00 L 705.28 -430.00 L 654.65 -430.00 L 698.98 -685.94 L 781.21 -685.77 Q 816.71 -684.70 834.71 -660.68 Q 852.76 -636.72 849.95 -602.63 Q 846.63 -564.49 821.09 -542.05 Q 795.61 -519.66 757.81 -519.83 Z M 742.18 -642.85 L 728.28 -563.09 L 760.46 -562.69 Q 777.89 -563.09 787.34 -574.51 Q 796.85 -585.92 798.99 -602.29 Q 800.56 -614.39 797.36 -628.00 Q 794.21 -641.67 778.91 -642.51 L 742.18 -642.85 Z M 967.02 -430.00 L 945.93 -523.54 L 920.28 -523.54 L 904.08 -430.00 L 853.45 -430.00 L 897.78 -685.94 L 975.12 -685.77 Q 1009.55 -684.87 1027.71 -664.67 Q 1045.94 -644.48 1043.13 -610.00 Q 1038.74 -557.63 995.31 -537.04 L 1021.13 -432.81 L 1021.13 -430.00 L 967.02 -430.00 Z M 940.98 -642.85 L 927.65 -566.58 L 954.03 -566.24 Q 971.24 -566.41 980.69 -577.99 Q 990.20 -589.64 992.33 -605.78 Q 993.91 -618.10 990.93 -629.97 Q 987.95 -641.84 972.98 -642.68 L 940.98 -642.85 Z M 1246.67 -577.66 L 1241.04 -539.69 Q 1230.69 -470.61 1189.57 -441.42 Q 1167.58 -425.78 1135.07 -426.46 Q 1104.47 -427.19 1087.14 -442.99 Q 1069.87 -458.86 1063.86 -483.55 Q 1057.89 -508.24 1061.21 -535.13 L 1067.23 -574.51 Q 1077.75 -643.75 1118.53 -673.79 Q 1140.86 -690.33 1173.71 -689.48 Q 1204.87 -688.75 1221.92 -672.04 Q 1238.96 -655.34 1244.59 -629.91 Q 1250.21 -604.54 1246.67 -577.66 Z M 1198.18 -605.95 Q 1198.52 -621.59 1192.72 -633.62 Q 1186.93 -645.66 1169.89 -646.39 Q 1151.21 -647.29 1140.64 -636.21 Q 1130.12 -625.13 1125.11 -608.93 Q 1120.11 -592.79 1118.02 -577.99 L 1111.84 -534.96 Q 1110.43 -522.98 1110.43 -507.85 Q 1110.26 -492.77 1116.34 -481.41 Q 1122.41 -470.11 1139.12 -469.38 Q 1157.23 -468.48 1167.58 -478.94 Q 1177.93 -489.40 1183.05 -504.93 Q 1188.17 -520.51 1190.08 -534.79 L 1196.94 -584.01 L 1198.18 -605.95 Z" fill="#48F07A"/>
  <polygon points="710,565 2050,555 1980,585 1120,640 900,600" fill="#48F07A"/>
</svg>